<?xml version="1.0" encoding="UTF-8"?>
<svg id="Layer_1" data-name="Layer 1" xmlns="http://www.w3.org/2000/svg" viewBox="0 0 83.86 84.82">
  <g>
    <path d="M41.94,6.3c-15.18-.34-25.56,10.54-26.69,11.79-1.57,1.73-9.42,11-9.42,24.32,0,19.91,16.2,36.1,36.1,36.1s36.1-16.2,36.1-36.1c0-21.11-18.67-35.71-36.1-36.1Zm-.19,63.12c-14.84,0-26.91-12.07-26.91-26.91S26.91,15.61,41.75,15.61s26.91,12.07,26.91,26.91-12.07,26.91-26.91,26.91Z" style="fill: #7f3c25;"/>
    <path d="M72.01,23.63s-.02-.02-.03-.03c-.24-.38-1.11-1.74-2.44-3.31-1.38-1.63-2.41-2.56-2.61-2.74l-.08-.07,.02-.24,.11-.07,5.29-3.23c.32-.14,.65-.05,.83,.19l3.45,4.22c.18,.25,.17,.59-.02,.84l-4.1,4.44c-.05,.06-.14,.1-.23,.09-.08,0-.14-.04-.19-.1Z" style="fill: #7f3c25;"/>
    <path d="M45.71,7.05s-.03,0-.04,0c-.44-.07-2.04-.3-4.1-.32-2.13-.02-3.52,.15-3.78,.18l-.11,.02-.16-.17,.03-.13,1.03-6.11c.11-.33,.39-.53,.69-.5l5.44,.16c.31,.03,.56,.25,.62,.56l.67,6.01c.01,.08-.02,.17-.08,.24-.05,.05-.13,.08-.2,.08Z" style="fill: #7f3c25;"/>
    <path d="M77.41,38.61s0-.03,0-.04c-.04-.45-.2-2.05-.68-4.05-.5-2.08-1-3.38-1.09-3.62l-.04-.1,.13-.2h.13l6.18-.5c.35,.02,.6,.25,.65,.54l1.17,5.32c.05,.31-.11,.6-.4,.74l-5.66,2.11c-.08,.03-.17,.02-.25-.02-.06-.04-.11-.1-.13-.17Z" style="fill: #7f3c25;"/>
    <path d="M75.57,54.36s0-.03,.01-.04c.16-.42,.71-1.94,1.16-3.94,.46-2.08,.58-3.47,.6-3.73v-.11l.21-.12,.12,.05,5.77,2.26c.3,.17,.44,.49,.35,.77l-1.27,5.3c-.09,.3-.36,.49-.68,.49l-6.02-.58c-.08,0-.17-.05-.22-.13-.04-.06-.05-.14-.04-.21Zm.3-.06h0Z" style="fill: #7f3c25;"/>
    <path d="M60.58,12.54s-.03-.01-.04-.02c-.37-.25-1.72-1.14-3.57-2.04-1.92-.93-3.24-1.37-3.49-1.45l-.11-.03-.07-.23,.08-.11,3.54-5.09c.24-.25,.57-.31,.83-.16l4.86,2.47c.27,.16,.39,.47,.32,.77l-1.96,5.72c-.02,.08-.09,.15-.18,.18-.07,.03-.15,.02-.22-.01Z" style="fill: #7f3c25;"/>
    <path d="M66.94,67.8s.02-.02,.03-.03c.33-.31,1.49-1.42,2.78-3.03,1.33-1.67,2.05-2.86,2.18-3.09l.06-.1,.24-.02,.09,.1,4.18,4.58c.19,.29,.18,.63-.03,.85l-3.48,4.19c-.21,.23-.54,.28-.83,.14l-5.15-3.17c-.07-.04-.13-.12-.14-.21,0-.07,.01-.15,.06-.21Zm.29,.07h0Z" style="fill: #7f3c25;"/>
    <path d="M53.49,76.17s.03-.01,.04-.02c.43-.13,1.96-.64,3.82-1.53,1.92-.93,3.09-1.69,3.3-1.84l.09-.06,.22,.08,.04,.13,1.79,5.94c.05,.34-.11,.64-.39,.75l-4.95,2.28c-.29,.11-.61,.02-.81-.23l-3.27-5.08c-.05-.07-.06-.16-.03-.25,.02-.07,.08-.13,.14-.16Z" style="fill: #7f3c25;"/>
    <path d="M37.73,77.83s.03,0,.04,0c.44,.07,2.04,.28,4.1,.29,2.13,0,3.52-.18,3.77-.21l.11-.02,.17,.17-.02,.13-.97,6.12c-.1,.33-.38,.53-.68,.5l-5.45-.11c-.31-.02-.56-.25-.63-.56l-.73-6c-.01-.08,.02-.17,.08-.24,.05-.05,.13-.08,.2-.08Z" style="fill: #7f3c25;"/>
    <path d="M23.16,72.74s.03,.01,.04,.02c.37,.25,1.73,1.12,3.59,2,1.93,.91,3.26,1.33,3.51,1.41l.11,.03,.08,.23-.08,.11-3.48,5.13c-.24,.26-.57,.32-.83,.17l-4.88-2.41c-.27-.15-.4-.46-.33-.77l1.89-5.74c.02-.08,.09-.15,.17-.18,.07-.03,.15-.02,.22,0Z" style="fill: #7f3c25;"/>
    <path d="M6.5,46.53s0,.03,0,.04c.04,.45,.2,2.05,.68,4.05,.5,2.08,1,3.38,1.09,3.62l.04,.1-.13,.2h-.13l-6.18,.5c-.35-.02-.6-.25-.65-.54L.07,49.18c-.05-.31,.11-.6,.4-.74l5.66-2.11c.08-.03,.17-.02,.25,.02,.06,.04,.11,.1,.13,.17Zm-.24,.19h0Z" style="fill: #7f3c25;"/>
    <path d="M11.58,61.16s.02,.02,.02,.04c.23,.39,1.06,1.77,2.35,3.38,1.34,1.66,2.34,2.63,2.53,2.81l.08,.07-.03,.24-.12,.06-5.38,3.08c-.32,.13-.65,.04-.82-.21l-3.33-4.31c-.18-.26-.16-.59,.04-.84l4.22-4.33c.06-.06,.15-.1,.24-.09,.07,0,.14,.05,.19,.1Z" style="fill: #7f3c25;"/>
    <path d="M8.29,30.82s0,.03-.01,.04c-.16,.42-.73,1.93-1.19,3.94-.48,2.08-.61,3.47-.63,3.73v.11l-.21,.12-.12-.05L.37,36.4c-.3-.18-.43-.49-.34-.78l1.31-5.29c.09-.3,.37-.49,.68-.49l6.01,.62c.08,0,.17,.06,.22,.13,.04,.06,.05,.14,.04,.21Zm-.3,.06h0Z" style="fill: #7f3c25;"/>
    <path d="M16.61,17.27s-.02,.02-.03,.03c-.32,.31-1.45,1.47-2.69,3.11-1.28,1.71-2.02,2.88-2.14,3.11l-.05,.1-.24,.03-.09-.1-4.27-4.41c-.2-.28-.2-.62,0-.85l3.35-4.29c.21-.24,.53-.3,.82-.17l5.24,3.02c.07,.04,.13,.12,.14,.21,.01,.07,0,.15-.05,.21Z" style="fill: #7f3c25;"/>
    <path d="M29.96,8.79s-.03,.01-.04,.02c-.42,.14-1.95,.69-3.78,1.63-1.9,.98-3.04,1.77-3.26,1.92l-.09,.06-.23-.08-.04-.13-1.94-5.89c-.06-.34,.1-.65,.37-.76l4.89-2.4c.29-.12,.61-.04,.81,.21l3.4,5c.05,.07,.07,.16,.04,.25-.02,.07-.07,.13-.14,.17Zm-.24-.19h0Z" style="fill: #7f3c25;"/>
  </g>
  <g>
    <path d="M42.23,61.99c-10.42,.35-19.18-7.84-19.53-18.26-.35-10.42,7.84-19.19,18.26-19.54,10.42-.35,19.19,7.84,19.54,18.27,.35,10.42-7.84,19.18-18.27,19.53Zm-1.15-34.37c-8.53,.29-15.24,7.46-14.95,15.99s7.46,15.24,15.99,14.95c8.53-.29,15.24-7.46,14.95-15.99-.29-8.53-7.46-15.24-15.99-14.95Z" style="fill: #405ea8;"/>
    <rect x="51.78" y="53.65" width="9.03" height="1.57" transform="translate(-21.4 64.25) rotate(-51.24)" style="fill: #405ea8;"/>
    <rect x="55.31" y="54.43" width="4.37" height="1.98" transform="translate(-21.72 65.55) rotate(-51.24)" style="fill: #405ea8;"/>
    <path d="M57.74,59.66c1.58,1.66,17.17,16.09,18.76,17.1,2.11-.66,6.62-6.8,6.26-8.08-.28-1-19.96-13.66-20.99-14.1-.35,.38-3.73,4.57-4.02,5.08Z" style="fill: #405ea8;"/>
  </g>
</svg>